<?xml version="1.0" encoding="UTF-8"?>
<svg version="1.1" xmlns="http://www.w3.org/2000/svg" width="512" height="512">
<path d="M0 0 C16.77598842 12.98861153 29.63241268 33.61584729 32.60253906 54.83374023 C33.82549607 65.67049813 34.05010621 76.57581768 34.23486328 87.46923828 C35.00503491 132.34433758 49.2265386 168.04151882 80.6940918 200.85058594 C109.30934373 230.85171461 126.02226885 278.85134169 125.3046875 320.15625 C125.03500825 325.66456696 123.741307 330.93537092 122.5703125 336.30859375 C120.6172497 344.85783023 120.6172497 344.85783023 123.5703125 352.87109375 C124.14007813 353.53109375 124.70984375 354.19109375 125.296875 354.87109375 C128.8117533 359.13559065 129.13433606 364.03972466 129.5703125 369.37109375 C131.00678666 379.82420575 135.7041137 388.63289724 143.8828125 395.43359375 C146.99454354 397.69233879 150.15350952 399.55608551 153.5703125 401.30859375 C159.42739559 404.36219757 164.83253313 409.53275565 166.9453125 415.87109375 C167.70770638 422.18807165 166.51426926 425.38844135 162.94140625 430.59765625 C156.72685736 437.67567475 149.37516782 441.50511967 141.0078125 445.68359375 C139.18334191 446.61148645 137.36116906 447.5437826 135.53915405 448.47648621 C133.75763813 449.38843587 131.97477607 450.29775428 130.19189453 451.20703125 C113.15421439 459.93983527 99.318662 470.84008587 85.609375 484.13671875 C74.84595239 494.31728454 63.99393185 497.38238778 49.57421875 497.1484375 C39.98368095 496.75591091 31.22977548 493.12371948 23.9453125 486.87109375 C21.82731266 484.44888255 19.9453125 482.2152636 19.9453125 478.87109375 C18.94673218 478.69694946 18.94673218 478.69694946 17.92797852 478.51928711 C13.10829782 477.66310138 8.31236124 476.75715383 3.53515625 475.6875 C-18.27976034 470.80612335 -39.49018107 468.6049117 -61.8046875 468.55859375 C-62.65772461 468.55491791 -63.51076172 468.55124207 -64.38964844 468.54745483 C-73.80981786 468.52622494 -82.8774563 468.85169007 -92.18066406 470.44458008 C-94.85806913 470.841915 -97.35367426 470.9492351 -100.0546875 470.87109375 C-100.16683594 471.60585938 -100.27898437 472.340625 -100.39453125 473.09765625 C-102.2622443 480.94426135 -108.61006373 487.35985711 -115.0546875 491.87109375 C-124.95102445 497.31573398 -134.5151371 498.28935399 -145.4296875 495.37109375 C-151.29430505 493.58510871 -156.89417233 491.34033635 -162.5546875 488.99609375 C-176.4481836 483.27912122 -190.81817728 479.86045777 -205.41210938 476.41943359 C-217.20392678 473.63270785 -228.87400615 470.61670854 -240.4921875 467.18359375 C-241.45596313 466.90411392 -241.45596313 466.90411392 -242.43920898 466.61898804 C-257.06477779 462.35932175 -257.06477779 462.35932175 -261.9296875 456.68359375 C-264.50418812 450.24734219 -263.3652874 445.08501406 -260.7421875 438.80859375 C-259.85309267 436.82639083 -258.95772124 434.84698548 -258.0546875 432.87109375 C-253.50066979 421.8640145 -253.5245401 411.47077185 -254.57421875 399.78125 C-254.67178467 398.6878833 -254.76935059 397.5945166 -254.86987305 396.46801758 C-255.0728578 394.27517437 -255.2886999 392.08347461 -255.51879883 389.89331055 C-256.27871653 381.79068019 -256.36042656 373.55239478 -251.0546875 366.87109375 C-246.59097036 363.66637375 -242.76491773 362.77034804 -237.3515625 362.6953125 C-236.45308594 362.67146484 -235.55460937 362.64761719 -234.62890625 362.62304688 C-232.76194338 362.58043984 -230.89468885 362.54899461 -229.02734375 362.52929688 C-221.94263256 362.31200545 -216.30418909 361.02311029 -211.1015625 355.9765625 C-209.73315585 353.95280447 -208.37558899 351.92626108 -207.0546875 349.87109375 C-206.61640625 349.30261719 -206.178125 348.73414063 -205.7265625 348.1484375 C-204.02177352 345.74468503 -202.97411253 343.71713099 -203.2578125 340.73828125 C-203.63891285 339.08866117 -204.03741473 337.44300576 -204.44921875 335.80078125 C-205.16621793 332.33143036 -205.38717048 329.03770237 -205.4921875 325.49609375 C-205.55212891 323.75199219 -205.55212891 323.75199219 -205.61328125 321.97265625 C-204.70282239 309.98671532 -195.93514981 297.49942601 -190.49584961 286.9453125 C-183.29022325 272.93481063 -177.71336434 258.9907607 -173.6171875 243.74609375 C-169.37379713 228.74557366 -163.05910405 216.82256133 -153.0546875 204.87109375 C-152.56774414 204.2879541 -152.08080078 203.70481445 -151.57910156 203.10400391 C-146.64842393 197.22878243 -141.61516245 191.46048708 -136.4296875 185.80859375 C-133.02703078 182.04580183 -129.80831434 178.17456191 -126.6796875 174.18359375 C-125.86757812 173.14847656 -125.05546875 172.11335937 -124.21875 171.046875 C-115.68322861 158.52092032 -118.13337703 143.97417662 -119.26263428 129.60116577 C-120.67592192 111.25379113 -121.38867653 92.95920283 -121.4296875 74.55859375 C-121.44079056 73.03909119 -121.44079056 73.03909119 -121.45211792 71.4888916 C-121.61098807 45.53992396 -118.18037498 22.00434786 -99.6875 2.2890625 C-72.27237441 -22.88892376 -29.29325347 -20.41537486 0 0 Z " fill="#FBFBF9" transform="translate(304.0546875,15.12890625)"/>
<path d="M0 0 C16.77598842 12.98861153 29.63241268 33.61584729 32.60253906 54.83374023 C33.82549607 65.67049813 34.05010621 76.57581768 34.23486328 87.46923828 C35.00503491 132.34433758 49.2265386 168.04151882 80.6940918 200.85058594 C108.99699494 230.52423833 125.23496364 277.30610944 125.32495117 318.09887695 C125.11548142 326.86186021 123.87891318 336.57891106 120.9453125 344.87109375 C120.2853125 345.20109375 119.6253125 345.53109375 118.9453125 345.87109375 C118.2853125 345.54109375 117.6253125 345.21109375 116.9453125 344.87109375 C116.7390625 345.98484375 116.5328125 347.09859375 116.3203125 348.24609375 C113.69674407 358.55817523 106.70579589 367.29635069 97.75390625 372.8515625 C88.38917889 378.018676 80.28858787 381.58528195 69.51171875 379.37109375 C63.29486077 377.52595546 58.833573 374.87432712 55.3046875 369.26171875 C53.59491219 364.99710678 53.50242603 361.47821587 53.5703125 356.93359375 C53.55291016 355.7744043 53.55291016 355.7744043 53.53515625 354.59179688 C53.56210391 349.27861698 54.5575446 345.61632793 56.9453125 340.87109375 C57.2753125 340.21109375 57.6053125 339.55109375 57.9453125 338.87109375 C55.6353125 338.87109375 53.3253125 338.87109375 50.9453125 338.87109375 C50.94975372 338.25294296 50.95419495 337.63479218 50.95877075 336.99790955 C51.0034476 330.49138734 51.03336046 323.98490959 51.05517578 317.47827148 C51.06515623 315.05865709 51.07874534 312.63905451 51.09619141 310.21948242 C51.31821365 278.60743362 46.8981038 251.26881194 26.9453125 225.87109375 C26.06101562 225.07445312 25.17671875 224.2778125 24.265625 223.45703125 C21.33284299 220.18850988 21.07636237 218.00721715 20.5078125 213.68359375 C18.3548103 199.93246926 13.57393575 187.52159287 7.16796875 175.2265625 C4.48255561 170.04257942 2.05494065 164.74453115 -0.3671875 159.43359375 C-0.78774414 158.5219043 -1.20830078 157.61021484 -1.64160156 156.67089844 C-8.81992055 140.87628667 -8.81992055 140.87628667 -6.61328125 134.05078125 C-5.36973184 129.19832972 -5.09331961 123.32130571 -6.9375 118.62109375 C-8.32571241 116.44655124 -9.69182484 115.81623881 -12.0546875 114.87109375 C-11.13004272 112.47618048 -10.20971515 110.15681989 -8.984375 107.8984375 C-4.31405563 98.64428615 -4.62747273 86.58221037 -6.75 76.6015625 C-9.23913137 69.7930561 -13.45251686 64.12507734 -19.7421875 60.43359375 C-24.76302886 58.2393711 -29.68468155 57.86899862 -35.0546875 58.87109375 C-41.91187876 61.91276323 -47.93261217 67.44400555 -51.1875 74.234375 C-53.54997647 81.41758047 -52.64875229 88.33694036 -49.5546875 95.12109375 C-48.74371926 96.71599795 -47.91837761 98.30411312 -47.0546875 99.87109375 C-48.76978516 99.38382813 -48.76978516 99.38382813 -50.51953125 98.88671875 C-54.93785755 97.78578426 -59.08090533 97.57183096 -63.6171875 97.62109375 C-64.33326172 97.61335938 -65.04933594 97.605625 -65.78710938 97.59765625 C-70.56428985 97.61504362 -74.51909028 98.36916142 -79.0546875 99.87109375 C-78.3946875 98.92234375 -77.7346875 97.97359375 -77.0546875 96.99609375 C-73.85634278 91.27575678 -74.18603215 86.00946146 -75.90234375 79.80859375 C-78.70863837 72.19830325 -82.6723972 66.5622389 -90.0546875 62.87109375 C-94.21793064 62.44577225 -97.93277358 62.4472596 -101.8671875 63.93359375 C-106.43282538 67.97744445 -108.57900792 72.80617907 -109.0546875 78.87109375 C-109.70693683 89.83309055 -109.49210772 102.80545759 -103.078125 112.07421875 C-102.0546875 113.87109375 -102.0546875 113.87109375 -102.0546875 117.87109375 C-103.11328125 119.65234375 -103.11328125 119.65234375 -104.4921875 121.37109375 C-107.88145122 125.61974342 -108.17331596 129.39598987 -108.67578125 134.7734375 C-108.18331149 137.24964215 -108.18331149 137.24964215 -105.03515625 138.92578125 C-102.80694427 140.65465182 -102.13526105 141.45584963 -101.59057617 144.26293945 C-101.54397763 147.22311848 -101.69615542 150.1074262 -101.9296875 153.05859375 C-101.9709375 154.04923828 -102.0121875 155.03988281 -102.0546875 156.06054688 C-102.68175108 166.45480728 -106.20122133 174.32513071 -112.3046875 182.62109375 C-124.68410452 199.73192053 -124.68410452 199.73192053 -129.14697266 219.84277344 C-129.29449259 229.83449673 -132.07346906 235.14677779 -137.84375 243.10107422 C-154.90039966 268.03266898 -165.33204213 304.93319654 -162.65429688 334.93652344 C-161.24327177 341.84227334 -156.31531348 345.72297437 -150.79443359 349.63623047 C-148.25449013 351.43906993 -145.92753942 353.48074685 -143.5546875 355.49609375 C-142.21857422 356.55570312 -142.21857422 356.55570312 -140.85546875 357.63671875 C-137.75816226 360.10765224 -134.75063118 362.66858808 -131.7421875 365.24609375 C-127.76475579 368.64970273 -123.72058809 371.92474518 -119.56103516 375.10327148 C-101.17302526 389.18429114 -101.17302526 389.18429114 -99.74609375 398.9921875 C-99.4247118 404.76732375 -100.49295378 408.30476846 -104.0546875 412.87109375 C-107.94119324 415.1572736 -111.37453514 415.99591799 -115.79296875 416.44140625 C-116.59387939 416.52406738 -117.39479004 416.60672852 -118.2199707 416.69189453 C-119.12815552 416.78059814 -119.12815552 416.78059814 -120.0546875 416.87109375 C-119.23484375 417.89589844 -118.415 418.92070312 -117.5703125 419.9765625 C-115.40364583 422.68489583 -113.23697917 425.39322917 -111.0703125 428.1015625 C-110.28382324 429.07331421 -110.28382324 429.07331421 -109.48144531 430.06469727 C-108.30475844 431.55448271 -107.20029197 433.10100989 -106.1171875 434.66015625 C-103.42273134 437.5485316 -100.43789749 438.73967643 -96.8046875 440.05859375 C-95.79607666 440.44084106 -95.79607666 440.44084106 -94.76708984 440.83081055 C-71.5390265 449.48159134 -44.50914563 448.00012812 -22.0546875 437.87109375 C-11.74127404 432.98707151 -3.46145678 426.44301065 4.9453125 418.87109375 C5.83089844 418.09507812 6.71648437 417.3190625 7.62890625 416.51953125 C17.99185229 408.15986459 17.99185229 408.15986459 25.9453125 397.87109375 C26.01004722 396.35444687 26.01100795 394.83483927 25.97949219 393.31713867 C25.9632782 392.3724321 25.94706421 391.42772552 25.93035889 390.45439148 C25.90951233 389.43045792 25.88866577 388.40652435 25.8671875 387.3515625 C25.83992404 385.19337446 25.81392193 383.03517019 25.7890625 380.87695312 C25.74583029 377.46627546 25.6952668 374.05643559 25.62304688 370.64624023 C25.55641109 367.36038216 25.52165283 364.07543684 25.4921875 360.7890625 C25.46324402 359.77120163 25.43430054 358.75334076 25.40447998 357.70463562 C25.37466485 349.81399396 25.37466485 349.81399396 28.47363281 346.6887207 C29.28928711 346.08890381 30.10494141 345.48908691 30.9453125 344.87109375 C39.36468694 370.12921706 33.25875456 408.67919135 28.02905273 434.27807617 C25.49023077 446.81211407 23.15813184 461.10957141 30.625 472.4140625 C33.35984002 475.31004629 36.27186248 476.94104204 39.8203125 478.62109375 C40.71943359 479.07548828 40.71943359 479.07548828 41.63671875 479.5390625 C50.86605525 484.04361936 61.72219221 484.25457884 71.40234375 480.9765625 C78.69545253 477.80613272 84.85646028 473.36906289 90.296875 467.609375 C104.27414307 452.8703127 122.61159011 443.56756976 140.7734375 435.05859375 C148.58206239 431.37452457 155.05033412 427.08197139 160.0078125 419.87109375 C161.2158932 416.00523553 161.15421729 412.9099197 160.9453125 408.87109375 C165.8203125 412.49609375 165.8203125 412.49609375 166.9453125 415.87109375 C167.70770638 422.18807165 166.51426926 425.38844135 162.94140625 430.59765625 C156.72685736 437.67567475 149.37516782 441.50511967 141.0078125 445.68359375 C139.18334191 446.61148645 137.36116906 447.5437826 135.53915405 448.47648621 C133.75763813 449.38843587 131.97477607 450.29775428 130.19189453 451.20703125 C113.15421439 459.93983527 99.318662 470.84008587 85.609375 484.13671875 C74.84595239 494.31728454 63.99393185 497.38238778 49.57421875 497.1484375 C39.98368095 496.75591091 31.22977548 493.12371948 23.9453125 486.87109375 C21.82731266 484.44888255 19.9453125 482.2152636 19.9453125 478.87109375 C18.94673218 478.69694946 18.94673218 478.69694946 17.92797852 478.51928711 C13.10829782 477.66310138 8.31236124 476.75715383 3.53515625 475.6875 C-18.27976034 470.80612335 -39.49018107 468.6049117 -61.8046875 468.55859375 C-62.65772461 468.55491791 -63.51076172 468.55124207 -64.38964844 468.54745483 C-73.80981786 468.52622494 -82.8774563 468.85169007 -92.18066406 470.44458008 C-94.85806913 470.841915 -97.35367426 470.9492351 -100.0546875 470.87109375 C-100.16683594 471.60585938 -100.27898437 472.340625 -100.39453125 473.09765625 C-102.2622443 480.94426135 -108.61006373 487.35985711 -115.0546875 491.87109375 C-124.95102445 497.31573398 -134.5151371 498.28935399 -145.4296875 495.37109375 C-151.29430505 493.58510871 -156.89417233 491.34033635 -162.5546875 488.99609375 C-176.4481836 483.27912122 -190.81817728 479.86045777 -205.41210938 476.41943359 C-217.20392678 473.63270785 -228.87400615 470.61670854 -240.4921875 467.18359375 C-241.45596313 466.90411392 -241.45596313 466.90411392 -242.43920898 466.61898804 C-257.06477779 462.35932175 -257.06477779 462.35932175 -261.9296875 456.68359375 C-264.50418812 450.24734219 -263.3652874 445.08501406 -260.7421875 438.80859375 C-259.85309267 436.82639083 -258.95772124 434.84698548 -258.0546875 432.87109375 C-253.50066979 421.8640145 -253.5245401 411.47077185 -254.57421875 399.78125 C-254.67178467 398.6878833 -254.76935059 397.5945166 -254.86987305 396.46801758 C-255.0728578 394.27517437 -255.2886999 392.08347461 -255.51879883 389.89331055 C-256.27871653 381.79068019 -256.36042656 373.55239478 -251.0546875 366.87109375 C-246.59097036 363.66637375 -242.76491773 362.77034804 -237.3515625 362.6953125 C-236.45308594 362.67146484 -235.55460937 362.64761719 -234.62890625 362.62304688 C-232.76194338 362.58043984 -230.89468885 362.54899461 -229.02734375 362.52929688 C-221.94263256 362.31200545 -216.30418909 361.02311029 -211.1015625 355.9765625 C-209.73315585 353.95280447 -208.37558899 351.92626108 -207.0546875 349.87109375 C-206.61640625 349.30261719 -206.178125 348.73414063 -205.7265625 348.1484375 C-204.02177352 345.74468503 -202.97411253 343.71713099 -203.2578125 340.73828125 C-203.63891285 339.08866117 -204.03741473 337.44300576 -204.44921875 335.80078125 C-205.16621793 332.33143036 -205.38717048 329.03770237 -205.4921875 325.49609375 C-205.55212891 323.75199219 -205.55212891 323.75199219 -205.61328125 321.97265625 C-204.70282239 309.98671532 -195.93514981 297.49942601 -190.49584961 286.9453125 C-183.29022325 272.93481063 -177.71336434 258.9907607 -173.6171875 243.74609375 C-169.37379713 228.74557366 -163.05910405 216.82256133 -153.0546875 204.87109375 C-152.56774414 204.2879541 -152.08080078 203.70481445 -151.57910156 203.10400391 C-146.64842393 197.22878243 -141.61516245 191.46048708 -136.4296875 185.80859375 C-133.02703078 182.04580183 -129.80831434 178.17456191 -126.6796875 174.18359375 C-125.86757812 173.14847656 -125.05546875 172.11335937 -124.21875 171.046875 C-115.68322861 158.52092032 -118.13337703 143.97417662 -119.26263428 129.60116577 C-120.67592192 111.25379113 -121.38867653 92.95920283 -121.4296875 74.55859375 C-121.44079056 73.03909119 -121.44079056 73.03909119 -121.45211792 71.4888916 C-121.61098807 45.53992396 -118.18037498 22.00434786 -99.6875 2.2890625 C-72.27237441 -22.88892376 -29.29325347 -20.41537486 0 0 Z " fill="#010100" transform="translate(304.0546875,15.12890625)"/>
<path d="M0 0 C9.03558823 4.14131127 14.52379095 13.45108082 17.91015625 22.37695312 C19.72526608 26.74557768 22.19742862 30.67671357 24.6875 34.6875 C25.76332205 36.44512816 26.83884048 38.2029422 27.9140625 39.9609375 C28.70345215 41.24436035 28.70345215 41.24436035 29.50878906 42.55371094 C30.83097672 44.72272212 32.12376377 46.90441316 33.3984375 49.1015625 C37.51487897 56.17821372 41.96246632 62.76986971 46.90771484 69.29492188 C50.71329818 74.40104631 53.77445036 79.75757169 56.78808594 85.35766602 C59.46694477 90.26065404 62.6042413 94.42434975 66.2109375 98.69921875 C72.4543649 106.72842997 76.26377379 116.79502666 75 127 C72.70126046 136.90025323 68.93821762 144.44932223 60.5625 150.375 C52.70389293 155.1630255 44.09693027 156.68956627 35 155 C29.92914364 153.47846288 25.01797033 151.53022712 20.07861328 149.63256836 C6.01397632 144.32071381 -8.57463297 141.58185432 -23.3125 138.8046875 C-34.58884523 136.66694132 -45.65292239 134.17927822 -56.6875 131 C-57.82832031 130.6798291 -58.96914062 130.3596582 -60.14453125 130.02978516 C-66.18675441 128.22712792 -70.58679753 126.57108535 -75 122 C-76.90803008 118.18393984 -76.59193387 114.14896769 -76 110 C-74.6625657 106.59262892 -73.09154402 103.36987789 -71.46875 100.08984375 C-66.90848034 90.49629773 -67.41188805 80.12648783 -68.5 69.75 C-68.98637315 64.89342103 -69.17897689 60.06511629 -69.25 55.1875 C-69.2819043 54.11097168 -69.2819043 54.11097168 -69.31445312 53.01269531 C-69.34559555 48.24123142 -68.55327761 45.03023211 -66 41 C-60.87443038 36.96497711 -57.1869983 35.83569629 -50.7890625 36.0078125 C-49.79132813 36.02457031 -48.79359375 36.04132813 -47.765625 36.05859375 C-45.67950365 36.10270328 -43.59353399 36.15472897 -41.5078125 36.21484375 C-35.90489948 36.29426649 -31.80108222 36.26287141 -27 33 C-21.13001063 26.80390011 -20.34513551 19.86162226 -18.9765625 11.69140625 C-17.68523724 6.81019675 -15.58748664 3.40605959 -11.8125 0.0625 C-7.65889022 -1.50664147 -4.25930891 -1.07052149 0 0 Z " fill="#FEBC00" transform="translate(124,348)"/>
<path d="M0 0 C0.33 0 0.66 0 1 0 C1 1.65 1 3.3 1 5 C3.31 5 5.62 5 8 5 C7.505 6.11375 7.01 7.2275 6.5 8.375 C3.85194384 16.38282369 3.3378682 26.70334001 5.87890625 34.80078125 C8.94600844 40.17580193 13.49018016 42.86168005 19.3125 44.75 C20.199375 44.8325 21.08625 44.915 22 45 C22.69609375 45.07476562 23.3921875 45.14953125 24.109375 45.2265625 C34.78135311 45.87231914 44.89154935 40.67399476 53 34 C60.24429529 27.05270791 65.15664378 20.1202746 66 10 C69.9667318 12.06754951 71.96832688 13.93935871 74.1875 17.8125 C74.67605469 18.64394531 75.16460937 19.47539062 75.66796875 20.33203125 C78.19116549 25.38582414 79.1669802 29.89907218 79.625 35.5 C81.06147416 45.953112 85.7588012 54.76180349 93.9375 61.5625 C97.80307428 64.35430365 101.83047334 66.75325066 106.08984375 68.89453125 C109.01675159 70.58842679 110.66130843 71.91657187 111.6875 75.19921875 C112.40358347 80.90103337 112.08162602 84.46440842 108.6171875 89.13671875 C102.05443696 96.69814872 94.26777126 100.58779546 85.37890625 104.85058594 C67.78823486 113.34985533 53.53247995 122.62268212 39.38452148 136.08447266 C30.47329518 144.45664338 20.91126343 150.0171602 8.4375 150.3125 C-1.95739867 149.94802249 -12.60127914 147.09442694 -20 139.25 C-27.7507126 126.65509203 -25.36177217 112.46208349 -22.49200439 98.67007446 C-17.86198808 75.95062324 -17.98341317 53.09827296 -18 30 C-17.99864111 28.35074845 -17.9970234 26.7014971 -17.99511719 25.05224609 C-17.99192526 21.36815286 -17.99403815 17.68409132 -18 14 C-18.66 13.67 -19.32 13.34 -20 13 C-19.40706956 5.76624857 -19.40706956 5.76624857 -17.9375 3 C-12.3950384 0.13937466 -5.62630104 2.39248542 0 4 C0 2.68 0 1.36 0 0 Z " fill="#FEBF00" transform="translate(354,349)"/>
<path d="M0 0 C0.495 0.99 0.495 0.99 1 2 C0.34167229 3.6699781 -0.32702354 5.33587113 -1 7 C-1.75097366 10.75899454 -2.39018005 14.5281231 -3.0234375 18.30859375 C-4.65312354 24.46880697 -7.80472648 28.40327218 -13 32 C-16.02614286 33.00871429 -17.8912867 33.07768179 -21.04296875 32.9921875 C-22.53086914 32.96705078 -22.53086914 32.96705078 -24.04882812 32.94140625 C-26.12193505 32.89754462 -28.19488883 32.84561516 -30.26757812 32.78515625 C-36.60746196 32.69511271 -41.25280635 33.25249634 -47 36 C-51.28077034 40.4188597 -51.16052925 45.15036327 -51.125 51 C-51.12209961 52.14903809 -51.12209961 52.14903809 -51.11914062 53.32128906 C-51.08753292 57.49174987 -50.92991994 61.59820168 -50.5 65.75 C-49.18779059 78.48615011 -49.97882498 88.99918952 -55.6875 100.5625 C-58.12589746 105.74316816 -59.26337915 110.31992953 -58 116 C-52.56533189 123.74028489 -41.68613258 125.41933049 -33.0625 127.8125 C-31.80139404 128.1628833 -30.54028809 128.5132666 -29.2409668 128.87426758 C-19.67938193 131.4746224 -10.06353493 133.4471616 -0.3125 135.1875 C13.68593219 137.69169847 27.03654182 140.61173266 40.2824707 145.84448242 C51.28743167 150.16175463 61.53693024 152.59013637 73.046875 147.96484375 C80.88915037 144.09075972 85.65038862 138.62670093 89.0390625 130.51171875 C92.42809948 120.32877119 91.48631207 111.74612623 87 102 C83.80473765 96.53633349 80.02539968 91.41803954 75.96484375 86.5703125 C73.61794968 83.50022045 71.86593895 80.21418363 70.0625 76.8125 C66.65799404 70.55435555 62.82396649 64.82937425 58.5625 59.125 C53.14351152 51.84208057 48.63876786 44.35283258 44.36328125 36.35546875 C41.69783082 31.37291276 38.7707628 26.56061438 35.77832031 21.76879883 C34.01214969 18.8961361 32.5376837 16.35845509 32 13 C37.1584997 17.61288916 40.70880811 23.18691807 44.5 28.9375 C45.20125 29.99420898 45.9025 31.05091797 46.625 32.13964844 C51.87361558 40.11954087 56.8028852 48.25450301 61.60498047 56.50878906 C68.31872291 68.48542961 68.31872291 68.48542961 77 79 C77.89731595 80.12844278 78.77079529 81.27608132 79.625 82.4375 C80.14835938 83.13359375 80.67171875 83.8296875 81.2109375 84.546875 C82.52209166 86.3447021 83.79267369 88.17230668 85.0390625 90.015625 C93.14431505 101.64365516 102.38599193 104.97795686 116 108 C141.71171841 112.00517598 167.41987271 107.9568947 189 93 C193.54362489 89.57506571 197.7752429 85.80520848 202 82 C202.88558594 81.22398437 203.77117187 80.44796875 204.68359375 79.6484375 C215.04653979 71.28877084 215.04653979 71.28877084 223 61 C223.06473472 59.48335312 223.06569545 57.96374552 223.03417969 56.44604492 C223.0179657 55.50133835 223.00175171 54.55663177 222.98504639 53.58329773 C222.95377655 52.04739738 222.95377655 52.04739738 222.921875 50.48046875 C222.89461154 48.32228071 222.86860943 46.16407644 222.84375 44.00585938 C222.80051779 40.59518171 222.7499543 37.18534184 222.67773438 33.77514648 C222.61109859 30.48928841 222.57634033 27.20434309 222.546875 23.91796875 C222.50345978 22.39117744 222.50345978 22.39117744 222.45916748 20.83354187 C222.42935235 12.94290021 222.42935235 12.94290021 225.52832031 9.81762695 C226.34397461 9.21781006 227.15962891 8.61799316 228 8 C236.41937444 33.25812331 230.31344206 71.8080976 225.08374023 97.40698242 C222.54491827 109.94102032 220.21281934 124.23847766 227.6796875 135.54296875 C230.41452752 138.43895254 233.32654998 140.06994829 236.875 141.75 C237.47441406 142.05292969 238.07382812 142.35585938 238.69140625 142.66796875 C247.92074275 147.17252561 258.77687971 147.38348509 268.45703125 144.10546875 C275.75014003 140.93503897 281.91114778 136.49796914 287.3515625 130.73828125 C301.32883057 115.99921895 319.66627761 106.69647601 337.828125 98.1875 C345.63674989 94.50343082 352.10502162 90.21087764 357.0625 83 C358.2705807 79.13414178 358.20890479 76.03882595 358 72 C362.875 75.625 362.875 75.625 364 79 C364.76239388 85.3169779 363.56895676 88.5173476 359.99609375 93.7265625 C353.78154486 100.804581 346.42985532 104.63402592 338.0625 108.8125 C336.23802941 109.7403927 334.41585656 110.67268885 332.59384155 111.60539246 C330.81232563 112.51734212 329.02946357 113.42666053 327.24658203 114.3359375 C310.20890189 123.06874152 296.3733495 133.96899212 282.6640625 147.265625 C271.90063989 157.44619079 261.04861935 160.51129403 246.62890625 160.27734375 C237.03836845 159.88481716 228.28446298 156.25262573 221 150 C218.88200016 147.5777888 217 145.34416985 217 142 C216.00141968 141.82585571 216.00141968 141.82585571 214.98266602 141.64819336 C210.16298532 140.79200763 205.36704874 139.88606008 200.58984375 138.81640625 C178.77492716 133.9350296 157.56450643 131.73381795 135.25 131.6875 C134.39696289 131.68382416 133.54392578 131.68014832 132.66503906 131.67636108 C123.24486964 131.65513119 114.1772312 131.98059632 104.87402344 133.57348633 C102.19661837 133.97082125 99.70101324 134.07814135 97 134 C96.88785156 134.73476563 96.77570313 135.46953125 96.66015625 136.2265625 C94.7924432 144.0731676 88.44462377 150.48876336 82 155 C72.10366305 160.44464023 62.5395504 161.41826024 51.625 158.5 C45.76038245 156.71401496 40.16051517 154.4692426 34.5 152.125 C20.6065039 146.40802747 6.23651022 142.98936402 -8.35742188 139.54833984 C-20.14923928 136.7616141 -31.81931865 133.74561479 -43.4375 130.3125 C-44.40127563 130.03302017 -44.40127563 130.03302017 -45.38452148 129.74789429 C-60.01009029 125.488228 -60.01009029 125.488228 -64.875 119.8125 C-67.44950062 113.37624844 -66.3105999 108.21392031 -63.6875 101.9375 C-62.79840517 99.95529708 -61.90303374 97.97589173 -61 96 C-56.44598229 84.99292075 -56.4698526 74.5996781 -57.51953125 62.91015625 C-57.61709717 61.81678955 -57.71466309 60.72342285 -57.81518555 59.59692383 C-58.0181703 57.40408062 -58.2340124 55.21238086 -58.46411133 53.0222168 C-59.22402903 44.91958644 -59.30573906 36.68130103 -54 30 C-49.53628286 26.79528 -45.71023023 25.89925429 -40.296875 25.82421875 C-39.39839844 25.80037109 -38.49992187 25.77652344 -37.57421875 25.75195312 C-35.70725588 25.70934609 -33.84000135 25.67790086 -31.97265625 25.65820312 C-24.94921973 25.44279102 -19.28426788 24.18206037 -14.1171875 19.17578125 C-13.70726562 18.56089844 -13.29734375 17.94601562 -12.875 17.3125 C-12.400625 16.62285156 -11.92625 15.93320312 -11.4375 15.22265625 C-10.963125 14.48917969 -10.48875 13.75570313 -10 13 C-8.95952798 11.41588136 -7.91786347 9.83254531 -6.875 8.25 C-6.38515625 7.50363281 -5.8953125 6.75726563 -5.390625 5.98828125 C-3.8104091 3.72892762 -2.064772 1.82652908 0 0 Z " fill="#010101" transform="translate(107,352)"/>
<path d="M0 0 C6.59489265 3.86503955 11.51876338 10.09776456 14.08984375 17.265625 C16.30309769 28.1092597 16.46939068 40.76268611 10.75 50.5 C9.88375 52.046875 9.88375 52.046875 9 53.625 C8.5875 54.24375 8.175 54.8625 7.75 55.5 C8.53375 55.7475 9.3175 55.995 10.125 56.25 C13.20593779 57.71711323 13.56657631 58.38944141 14.75 61.5 C15.51828949 68.47109729 15.27874677 76.91672254 12.75 83.5 C9.59880422 86.55835292 6.60318582 88.11466158 2.5 89.5625 C-3.9062303 92.09648479 -9.36562351 95.61614103 -15.02246094 99.49047852 C-19.8924829 102.78603003 -24.79176811 105.31439579 -30.25 107.5 C-31.24257812 107.90605469 -32.23515625 108.31210938 -33.2578125 108.73046875 C-37.25501065 109.7584688 -41.01409807 109.82965735 -45.125 109.8125 C-45.88941406 109.82861328 -46.65382812 109.84472656 -47.44140625 109.86132812 C-53.74654382 109.86668053 -59.5164564 108.92868744 -64.3515625 104.6328125 C-64.85429687 103.97023438 -65.35703125 103.30765625 -65.875 102.625 C-67.90970339 100.09086941 -69.81791621 97.88413727 -72.375 95.875 C-74.60949719 94.02911102 -76.20808804 92.46107266 -78 90.25 C-79.95631884 87.47640062 -79.95631884 87.47640062 -82.25 86.5 C-82.25 90.79 -82.25 95.08 -82.25 99.5 C-82.58 99.5 -82.91 99.5 -83.25 99.5 C-83.18039063 98.33082031 -83.11078125 97.16164063 -83.0390625 95.95703125 C-82.98276725 94.40891179 -82.92816898 92.86072998 -82.875 91.3125 C-82.82472656 90.54357422 -82.77445313 89.77464844 -82.72265625 88.98242188 C-82.52985374 84.62261534 -82.52985374 84.62261534 -84.5925293 80.96972656 C-86.12144286 79.78215923 -87.68459281 78.63903169 -89.25 77.5 C-90.2749664 70.43912034 -88.34192144 65.30915165 -84.0625 59.5625 C-83.1653125 58.5415625 -83.1653125 58.5415625 -82.25 57.5 C-83.47815947 54.9778868 -84.7738999 52.64866266 -86.25 50.25 C-91.10628666 40.57366762 -91.70570786 25.72711234 -89.5 15.25 C-87.87899609 10.38698827 -85.97038875 6.97461893 -82.0625 3.625 C-78.04379067 2.01751627 -74.51843736 1.83400268 -70.25 2.5 C-62.55533779 6.27189324 -57.8102813 12.97014784 -54.9453125 20.87890625 C-53.65499247 25.74297781 -52.99013392 30.77391046 -55.15625 35.4609375 C-56.25 37.125 -56.25 37.125 -58.25 39.5 C-57.43402344 39.17515625 -56.61804688 38.8503125 -55.77734375 38.515625 C-51.6533601 37.32820999 -48.07243909 37.20480171 -43.8125 37.25 C-43.08740234 37.24226563 -42.36230469 37.23453125 -41.61523438 37.2265625 C-36.80193961 37.24386095 -32.81870759 37.98311685 -28.25 39.5 C-28.79140625 38.62601563 -28.79140625 38.62601563 -29.34375 37.734375 C-33.19423448 30.93185242 -34.38951569 25.27235699 -33.25 17.5 C-31.07771986 9.99924447 -25.32071868 4.38241564 -19 0.0625 C-13.16276395 -2.96761579 -5.93791354 -2.58270414 0 0 Z " fill="#F6C104" transform="translate(284.25,74.5)"/>
<path d="M0 0 C0.495 0.99 0.495 0.99 1 2 C0.34167229 3.6699781 -0.32702354 5.33587113 -1 7 C-1.75097366 10.75899454 -2.39018005 14.5281231 -3.0234375 18.30859375 C-4.65312354 24.46880697 -7.80472648 28.40327218 -13 32 C-16.02614286 33.00871429 -17.8912867 33.07768179 -21.04296875 32.9921875 C-22.53086914 32.96705078 -22.53086914 32.96705078 -24.04882812 32.94140625 C-26.12193505 32.89754462 -28.19488883 32.84561516 -30.26757812 32.78515625 C-36.60746196 32.69511271 -41.25280635 33.25249634 -47 36 C-51.28077034 40.4188597 -51.16052925 45.15036327 -51.125 51 C-51.12209961 52.14903809 -51.12209961 52.14903809 -51.11914062 53.32128906 C-51.08753292 57.49174987 -50.92991994 61.59820168 -50.5 65.75 C-49.18779059 78.48615011 -49.97882498 88.99918952 -55.6875 100.5625 C-58.12589746 105.74316816 -59.26337915 110.31992953 -58 116 C-52.56533189 123.74028489 -41.68613258 125.41933049 -33.0625 127.8125 C-31.80139404 128.1628833 -30.54028809 128.5132666 -29.2409668 128.87426758 C-19.67938193 131.4746224 -10.06353493 133.4471616 -0.3125 135.1875 C13.68593219 137.69169847 27.03654182 140.61173266 40.2824707 145.84448242 C51.28743167 150.16175463 61.53693024 152.59013637 73.046875 147.96484375 C80.88915037 144.09075972 85.65038862 138.62670093 89.0390625 130.51171875 C92.42809948 120.32877119 91.48631207 111.74612623 87 102 C83.80473765 96.53633349 80.02539968 91.41803954 75.96484375 86.5703125 C73.61794968 83.50022045 71.86593895 80.21418363 70.0625 76.8125 C66.65799404 70.55435555 62.82396649 64.82937425 58.5625 59.125 C53.14351152 51.84208057 48.63876786 44.35283258 44.36328125 36.35546875 C41.69783082 31.37291276 38.7707628 26.56061438 35.77832031 21.76879883 C34.01214969 18.8961361 32.5376837 16.35845509 32 13 C37.1584997 17.61288916 40.70880811 23.18691807 44.5 28.9375 C45.20125 29.99420898 45.9025 31.05091797 46.625 32.13964844 C51.87361558 40.11954087 56.8028852 48.25450301 61.60498047 56.50878906 C68.31872291 68.48542961 68.31872291 68.48542961 77 79 C78.45332138 80.82766174 79.82063402 82.70613179 81.1953125 84.59375 C82.4739875 86.29865001 83.80861904 87.96222768 85.1796875 89.59375 C93.74472467 100.09096727 99.10919615 112.30305417 98.3203125 126.07421875 C98.21460938 127.03972656 98.10890625 128.00523437 98 129 C97.91492188 129.89332031 97.82984375 130.78664063 97.7421875 131.70703125 C96.410594 140.92902452 91.21382902 147.66240842 84.1484375 153.49609375 C76.18505717 159.07045998 67.58605842 160.89022615 58 160 C49.7840477 158.35261237 42.20583584 155.31629057 34.5 152.125 C20.6065039 146.40802747 6.23651022 142.98936402 -8.35742188 139.54833984 C-20.14923928 136.7616141 -31.81931865 133.74561479 -43.4375 130.3125 C-44.40127563 130.03302017 -44.40127563 130.03302017 -45.38452148 129.74789429 C-60.01009029 125.488228 -60.01009029 125.488228 -64.875 119.8125 C-67.44950062 113.37624844 -66.3105999 108.21392031 -63.6875 101.9375 C-62.79840517 99.95529708 -61.90303374 97.97589173 -61 96 C-56.44598229 84.99292075 -56.4698526 74.5996781 -57.51953125 62.91015625 C-57.61709717 61.81678955 -57.71466309 60.72342285 -57.81518555 59.59692383 C-58.0181703 57.40408062 -58.2340124 55.21238086 -58.46411133 53.0222168 C-59.22402903 44.91958644 -59.30573906 36.68130103 -54 30 C-49.53628286 26.79528 -45.71023023 25.89925429 -40.296875 25.82421875 C-39.39839844 25.80037109 -38.49992187 25.77652344 -37.57421875 25.75195312 C-35.70725588 25.70934609 -33.84000135 25.67790086 -31.97265625 25.65820312 C-24.94921973 25.44279102 -19.28426788 24.18206037 -14.1171875 19.17578125 C-13.70726562 18.56089844 -13.29734375 17.94601562 -12.875 17.3125 C-12.400625 16.62285156 -11.92625 15.93320312 -11.4375 15.22265625 C-10.963125 14.48917969 -10.48875 13.75570313 -10 13 C-8.95952798 11.41588136 -7.91786347 9.83254531 -6.875 8.25 C-6.38515625 7.50363281 -5.8953125 6.75726563 -5.390625 5.98828125 C-3.8104091 3.72892762 -2.064772 1.82652908 0 0 Z " fill="#895700" transform="translate(107,352)"/>
<path d="M0 0 C11.71010305 17.56515457 2.75194985 65.17925336 -1.0625 85.1875 C-1.34451979 86.59451106 -1.62903102 88.00102547 -1.91625977 89.40698242 C-4.45508173 101.94102032 -6.78718066 116.23847766 0.6796875 127.54296875 C3.41452752 130.43895254 6.32654998 132.06994829 9.875 133.75 C10.47441406 134.05292969 11.07382812 134.35585938 11.69140625 134.66796875 C20.92074275 139.17252561 31.77687971 139.38348509 41.45703125 136.10546875 C48.75014003 132.93503897 54.91114778 128.49796914 60.3515625 122.73828125 C74.32883057 107.99921895 92.66627761 98.69647601 110.828125 90.1875 C118.63674989 86.50343082 125.10502162 82.21087764 130.0625 75 C131.2705807 71.13414178 131.20890479 68.03882595 131 64 C135.875 67.625 135.875 67.625 137 71 C137.76239388 77.3169779 136.56895676 80.5173476 132.99609375 85.7265625 C126.78154486 92.804581 119.42985532 96.63402592 111.0625 100.8125 C109.23802941 101.7403927 107.41585656 102.67268885 105.59384155 103.60539246 C103.81232563 104.51734212 102.02946357 105.42666053 100.24658203 106.3359375 C83.20890189 115.06874152 69.3733495 125.96899212 55.6640625 139.265625 C44.90063989 149.44619079 34.04861935 152.51129403 19.62890625 152.27734375 C9.98740171 151.88273116 1.35563086 148.21558616 -6 142 C-13.21994498 133.85442105 -12.4815221 122.25539624 -12 112 C-11.19528462 99.07090619 -8.98850643 86.32806024 -6.76489258 73.58203125 C-6.55243896 72.35742188 -6.33998535 71.1328125 -6.12109375 69.87109375 C-5.9295874 68.78755615 -5.73808105 67.70401855 -5.54077148 66.58764648 C-4.2825587 58.24027095 -3.8909332 50.13518176 -4.04296875 41.69921875 C-4.06533157 39.56706632 -4.08678969 37.43490425 -4.10742188 35.30273438 C-4.14464937 31.98011863 -4.18802211 28.6580019 -4.24682617 25.33569336 C-4.30123729 22.10262736 -4.33036868 18.87012739 -4.35546875 15.63671875 C-4.37925095 14.64395432 -4.40303314 13.65118988 -4.42753601 12.62834167 C-4.45384048 5.71026611 -4.45384048 5.71026611 -1.9777832 1.83520508 C-0.99878052 0.92677856 -0.99878052 0.92677856 0 0 Z " fill="#6A4000" transform="translate(334,360)"/>
<path d="M0 0 C9.05706598 8.23369635 15.80048093 19.02148232 16.5 31.5 C16.00803781 40.53570553 12.44824072 49.60882336 6 56 C-1.79373898 62.37152384 -9.52074106 64.76130871 -19.57421875 64.64453125 C-26.34778809 63.95913868 -32.61910458 61.0538513 -38.92138672 58.63256836 C-52.98602368 53.32071381 -67.57463297 50.58185432 -82.3125 47.8046875 C-93.58884523 45.66694132 -104.65292239 43.17927822 -115.6875 40 C-116.82832031 39.6798291 -117.96914062 39.3596582 -119.14453125 39.02978516 C-125.18675441 37.22712792 -129.58679753 35.57108535 -134 31 C-135.90806391 27.18387219 -135.5956584 23.14814367 -135 19 C-133.3024389 14.50121561 -131.23932235 10.25204661 -129 6 C-127.875 9.75 -127.875 9.75 -129 12 C-129.13357453 15.67329964 -129.1671568 18.49852959 -128 22 C-123.99052945 24.01980847 -119.5670048 25.06043393 -115.25 26.25 C-114.47414551 26.46398437 -113.69829102 26.67796875 -112.89892578 26.8984375 C-98.91896448 30.69849728 -84.83071255 34.09169614 -70.60742188 36.84448242 C-60.49151024 38.81461948 -51.17230382 41.42083475 -41.6796875 45.44921875 C-32.10579985 49.48407374 -22.43788303 51.05824181 -12.4375 47.25 C-4.47039559 43.47473811 -1.45785411 38.96636388 2 31 C5.04825665 21.85523005 4.40139215 13.18047907 0.91015625 4.328125 C0 2 0 2 0 0 Z " fill="#EA9900" transform="translate(183,439)"/>
<path d="M0 0 C0.33 0 0.66 0 1 0 C1.96151334 7.69419015 2.05020751 15.28223605 1.95703125 23.0234375 C1.94678925 24.01909729 1.93654724 25.01475708 1.92599487 26.04058838 C1.8806318 30.21175356 1.83102604 34.38252263 1.75317383 38.55322266 C1.69868957 41.62670556 1.6696184 44.69959275 1.64453125 47.7734375 C1.62074905 48.71101898 1.59696686 49.64860046 1.57246399 50.61459351 C1.54984365 56.26529098 2.16454657 59.5451593 6 64 C12.72355996 68.99957023 20.95880987 68.60801331 29 68 C41.29406815 65.76587547 51.64976935 61.02422349 61.9375 54.0625 C72.9544154 46.63281703 82.02949254 42.48565874 94.96728516 39.76391602 C107.12450938 37.19022138 116.60231323 33.57019398 125 24 C126.69153403 21.35314365 127.82730107 18.93174732 129 16 C129.33 16 129.66 16 130 16 C129.42183401 23.22707482 126.85154008 27.39733837 121.75 32.375 C116.26835082 36.98159693 109.78565303 39.77813302 103.37890625 42.85058594 C85.78823486 51.34985533 71.53247995 60.62268212 57.38452148 74.08447266 C48.47329518 82.45664338 38.91126343 88.0171602 26.4375 88.3125 C16.04260133 87.94802249 5.39872086 85.09442694 -2 77.25 C-10.44939364 63.51973534 -6.90317552 47.47402553 -4.0625 32.5625 C-2.01060922 21.68097431 -0.4619814 11.07841553 0 0 Z " fill="#DF8800" transform="translate(336,411)"/>
<path d="M0 0 C0.33 0 0.66 0 1 0 C1.5360871 15.3976129 1.5360871 15.3976129 -1 22 C-4.15119578 25.05835292 -7.14681418 26.61466158 -11.25 28.0625 C-17.6562303 30.59648479 -23.11562351 34.11614103 -28.77246094 37.99047852 C-33.6424829 41.28603003 -38.54176811 43.81439579 -44 46 C-44.99257812 46.40605469 -45.98515625 46.81210938 -47.0078125 47.23046875 C-51.00501065 48.2584688 -54.76409807 48.32965735 -58.875 48.3125 C-59.63941406 48.32861328 -60.40382812 48.34472656 -61.19140625 48.36132812 C-67.49654382 48.36668053 -73.2664564 47.42868744 -78.1015625 43.1328125 C-78.60429687 42.47023437 -79.10703125 41.80765625 -79.625 41.125 C-81.65970339 38.59086941 -83.56791621 36.38413727 -86.125 34.375 C-88.35949719 32.52911102 -89.95808804 30.96107266 -91.75 28.75 C-93.70631884 25.97640062 -93.70631884 25.97640062 -96 25 C-96 29.29 -96 33.58 -96 38 C-96.33 38 -96.66 38 -97 38 C-96.94199219 36.83082031 -96.88398438 35.66164062 -96.82421875 34.45703125 C-96.77730551 32.9088942 -96.73180702 31.36071383 -96.6875 29.8125 C-96.64560547 29.04357422 -96.60371094 28.27464844 -96.56054688 27.48242188 C-96.46508113 23.03371827 -96.56687445 21.52445124 -99.51953125 17.94921875 C-100.74736328 16.98435547 -100.74736328 16.98435547 -102 16 C-96.89990308 16.11087167 -94.18916848 17.34537477 -90.0625 20.375 C-80.41454273 27.40876526 -71.63533452 28.27367277 -59.78369141 26.70703125 C-42.21439017 23.88806206 -29.50791332 16.19125273 -16 5 C-12.37179487 2 -12.37179487 2 -9 2 C-9 3.32 -9 4.64 -9 6 C-6.36 5.34 -3.72 4.68 -1 4 C-0.67 2.68 -0.34 1.36 0 0 Z " fill="#E69800" transform="translate(298,136)"/>
<path d="M0 0 C3.26564448 2.6527376 4.26470079 5.80364271 5.6875 9.6875 C6.12449219 10.86699219 6.56148438 12.04648438 7.01171875 13.26171875 C7.33785156 14.16535156 7.66398437 15.06898438 8 16 C4.98221388 17.50889306 2.22184151 16.85717089 -1.125 16.6875 C-7.11246038 16.54987354 -10.84652472 17.21326082 -15.34375 21.30078125 C-15.8903125 21.86152344 -16.436875 22.42226562 -17 23 C-22.60886304 28.41493959 -28.91627166 31.89920166 -35.70703125 35.6171875 C-40.57534207 38.28994218 -45.31483506 41.16291729 -50.0390625 44.08129883 C-55.78002076 47.58708723 -60.17224738 49.79657114 -67 49 C-79.21220464 44.31524366 -88.64780619 33.69863878 -93.90625 21.98046875 C-95.87182373 15.83805083 -94.70950881 9.28969971 -94 3 C-90.74698204 4.3931403 -88.96613784 5.94960155 -86.75 8.6875 C-83.69088838 12.31360214 -80.42210581 15.40458691 -76.796875 18.45703125 C-75 20 -75 20 -73.640625 21.57421875 C-67.63116039 26.79672966 -57.65227558 25.65646782 -50.21533203 25.22509766 C-39.9142144 24.17841147 -31.34028169 17.91256798 -22.87890625 12.4375 C-17.80001683 9.18460121 -12.44473461 6.57781683 -7 4 C-3.25492988 2.36797682 -3.25492988 2.36797682 0 0 Z " fill="#BABAB8" transform="translate(296,158)"/>
<path d="M0 0 C6.59489265 3.86503955 11.51876338 10.09776456 14.08984375 17.265625 C16.25398321 27.8686278 16.69563929 41.08948816 10.75 50.5 C8.875 53.1875 8.875 53.1875 6.75 54.5 C1.59300801 54.38006995 -3.41277088 52.20915429 -8.25 50.5 C-6.09208943 49.41647287 -3.93125742 48.34859727 -1.75 47.3125 C2.20053419 44.44836272 4.29291885 41.0716586 5.13671875 36.32421875 C5.42099017 30.64859285 4.09646802 26.10399171 0.75 21.5 C-2.48284227 18.56105248 -5.00391627 17.259651 -9.3125 17 C-13.7678928 17.56576416 -15.27465934 18.18462041 -18.25 21.5 C-21.49156477 27.08890478 -21.89013214 32.10917255 -21.25 38.5 C-20.37899451 41.9614054 -20.37899451 41.9614054 -19.25 44.5 C-24.26490139 43.24627465 -26.42733485 41.82808657 -29.25 37.5 C-29.62382812 36.94441406 -29.99765625 36.38882813 -30.3828125 35.81640625 C-33.86911551 29.95307846 -34.12470211 24.18200274 -33.25 17.5 C-31.09849054 10.00154397 -25.31020118 4.37522743 -19 0.0625 C-13.16276395 -2.96761579 -5.93791354 -2.58270414 0 0 Z " fill="#F9F9F6" transform="translate(284.25,74.5)"/>
<path d="M0 0 C0.33 0 0.66 0 1 0 C1.01417969 0.845625 1.02835937 1.69125 1.04296875 2.5625 C1.34773702 9.81104274 1.81724783 15.6046221 7 21 C10.60428199 23.81430238 14.432018 25.57507144 19 26 C19.69609375 26.07476562 20.3921875 26.14953125 21.109375 26.2265625 C34.17226847 27.01699236 45.38908059 19.06077112 55 11 C54.03334469 22.35819989 47.86957337 32.81070408 39.37109375 40.32421875 C37 42 37 42 35 42 C35 42.66 35 43.32 35 44 C27.34617797 48.21864207 20.76953427 50.42461143 12 49 C6.68607878 47.40655457 2.2713699 45.31141854 -0.5625 40.375 C-2.54734218 35.38959828 -2.84139569 30.31669226 -3 25 C-3.03996094 23.87207031 -3.07992188 22.74414062 -3.12109375 21.58203125 C-3.22616062 16.11237385 -3.20361276 12.0523897 -1 7 C-0.6186926 4.67402489 -0.27539746 2.34087842 0 0 Z " fill="#E29C00" transform="translate(357,368)"/>
<path d="M0 0 C1.9451 2.91765 2.45276317 4.62537285 3 8 C2.34 8 1.68 8 1 8 C2.49565816 23.86184833 6.72508982 34.04240489 16 47 C19.87329625 52.473136 20.73421876 57.39533617 21 64 C17.08601776 62.39545278 14.37767882 59.69393166 11.375 56.8125 C-7.06288247 39.71742471 -27.61611406 34.84812852 -52 31 C-54.27120731 30.62465177 -56.54205956 30.24714691 -58.8125 29.8671875 C-59.80894531 29.7007373 -60.80539062 29.53428711 -61.83203125 29.36279297 C-62.54746094 29.24307129 -63.26289063 29.12334961 -64 29 C-64 28.67 -64 28.34 -64 28 C-63.24082275 27.98018066 -62.48164551 27.96036133 -61.69946289 27.93994141 C-34.01286283 29.03619888 -34.01286283 29.03619888 -9 20 C-4.12283567 14.132813 -1.77795065 7.33014741 0 0 Z " fill="#D4D4D3" transform="translate(319,207)"/>
<path d="M0 0 C7.68556288 3.76743279 12.46219494 10.47123502 15.296875 18.38671875 C16.72316443 23.68776114 17.3710076 28.42518085 14.71875 33.40625 C13.25016436 35.45075158 11.84585618 37.28804013 10 39 C9.34 39 8.68 39 8 39 C7.97421875 38.29875 7.9484375 37.5975 7.921875 36.875 C7.47719442 29.43670674 6.28199169 23.62150807 1.1875 18 C-2.05532485 16.51756578 -4.48939073 16.55319518 -8 17 C-11.44012043 20.32544975 -12.17377096 24.03642643 -12.3125 28.6875 C-12.25148516 33.9118958 -11.06007761 37.75695308 -8 42 C-5.43190172 44.4595774 -5.43190172 44.4595774 -3 46 C-4.44253657 49.36591866 -6.33264727 51.51047079 -9 54 C-13.27978792 52.19702551 -14.77571472 49.99256182 -16.89453125 45.95703125 C-21.03763966 34.87458224 -21.74094438 20.22283313 -18 9 C-13.73889969 1.21247185 -8.6929481 -1.35634651 0 0 Z " fill="#F2F2F0" transform="translate(214,77)"/>
<path d="M0 0 C5.07433897 2.22901125 8.15754164 5.78940066 10.3359375 10.828125 C11.7721731 15.52546026 11.99039779 19.67012979 10.046875 24.2421875 C7.72165087 28.25982159 5.45367374 31.30336239 1 33 C-4.48706911 33.82823685 -7.84482159 32.54837025 -12.265625 29.47265625 C-15.57832771 26.65984336 -16.74214242 23.9420919 -17.30859375 19.67578125 C-17.6862828 12.20211613 -15.72708759 7.03009732 -10.75 1.5 C-7.08875689 -0.49704169 -4.01898927 -0.86339503 0 0 Z " fill="#070706" transform="translate(279,91)"/>
<path d="M0 0 C14.29554038 4.19958011 24.92334428 14.96063562 32.234375 27.5390625 C40.16122185 43.07708531 40.2057574 61.82943224 35.29003906 78.39208984 C34.53630788 80.71070594 33.74737404 83.01293063 32.9375 85.3125 C30.5637569 92.04452348 30.5637569 92.04452348 29 99 C30.28519531 99.12632812 31.57039063 99.25265625 32.89453125 99.3828125 C37.89129288 99.94029031 42.76969107 100.84174744 47.6875 101.875 C48.50283203 102.03613281 49.31816406 102.19726562 50.15820312 102.36328125 C56.50844422 103.68774544 63.12045168 105.41345042 67 111 C67.19842675 114.57168142 66.90010331 116.83437949 64.67578125 119.71484375 C60.30322737 123.88354897 55.90516624 125.22335682 50 126 C50.3609375 125.55269531 50.721875 125.10539062 51.09375 124.64453125 C53.17821346 121.92893858 54.81346135 119.71223848 55.6875 116.375 C54.61573594 112.67254233 52.19228651 110.88931242 49 109 C46.05654378 107.7503221 43.0952513 106.79669077 40 106 C39.28585937 105.81050781 38.57171875 105.62101562 37.8359375 105.42578125 C33.62029281 104.79285388 29.44318516 104.89624429 25.1875 104.9375 C24.30384766 104.94201172 23.42019531 104.94652344 22.50976562 104.95117188 C20.33981441 104.96290134 18.16989828 104.98083505 16 105 C18.96133065 101.8361852 20.62573634 100.4860293 25 100 C25.26554687 98.72125 25.53109375 97.4425 25.8046875 96.125 C26.55149203 92.74791566 27.4426851 89.47753057 28.5078125 86.1875 C31.73872634 75.99965948 33.56732407 66.53479126 33.5625 55.8125 C33.56459473 54.79865234 33.56668945 53.78480469 33.56884766 52.74023438 C33.2457689 37.96120315 27.98100405 24.26970275 17.7890625 13.46484375 C13.20723057 9.41563374 8.13396157 6.179058 2.96484375 2.93359375 C1.98644531 2.29550781 1.00804687 1.65742188 0 1 C0 0.67 0 0.34 0 0 Z " fill="#777778" transform="translate(351,244)"/>
<path d="M0 0 C0.99 0.495 0.99 0.495 2 1 C-12.60485726 14.94100012 -31.73010675 17.42356094 -51 19 C-50.030625 19.556875 -49.06125 20.11375 -48.0625 20.6875 C-45 23 -45 23 -44.125 25.75 C-44.08375 26.4925 -44.0425 27.235 -44 28 C-33.05295616 30.54899981 -19.22758085 32.79508193 -9 27 C-5.79136671 24.80935554 -2.68795949 22.48069009 0.40429688 20.12963867 C5.34059537 16.39192426 10.2943633 13.44085902 16 11 C16.71414063 10.68417969 17.42828125 10.36835938 18.1640625 10.04296875 C19.76799792 9.34324394 21.38261548 8.66805013 23 8 C23 8.99 23 9.98 23 11 C20.23229303 13.58061256 17.33442273 14.72833255 13.8125 16 C7.41026291 18.56560236 1.90754775 22.10040383 -3.7722168 25.99023438 C-8.64225545 29.28598451 -13.54166037 31.81435265 -19 34 C-19.99257812 34.40605469 -20.98515625 34.81210938 -22.0078125 35.23046875 C-26.00501065 36.2584688 -29.76409807 36.32965735 -33.875 36.3125 C-34.63941406 36.32861328 -35.40382812 36.34472656 -36.19140625 36.36132812 C-42.49654382 36.36668053 -48.2664564 35.42868744 -53.1015625 31.1328125 C-53.60429687 30.47023437 -54.10703125 29.80765625 -54.625 29.125 C-56.65970339 26.59086941 -58.56791621 24.38413727 -61.125 22.375 C-63.35949719 20.52911102 -64.95808804 18.96107266 -66.75 16.75 C-68.70631884 13.97640062 -68.70631884 13.97640062 -71 13 C-71 17.29 -71 21.58 -71 26 C-71.33 26 -71.66 26 -72 26 C-71.94199219 24.83082031 -71.88398438 23.66164062 -71.82421875 22.45703125 C-71.77730551 20.9088942 -71.73180702 19.36071383 -71.6875 17.8125 C-71.64560547 17.04357422 -71.60371094 16.27464844 -71.56054688 15.48242188 C-71.46508113 11.03371827 -71.56687445 9.52445124 -74.51953125 5.94921875 C-75.74736328 4.98435547 -75.74736328 4.98435547 -77 4 C-71.89990308 4.11087167 -69.18916848 5.34537477 -65.0625 8.375 C-55.41454273 15.40876526 -46.63533452 16.27367277 -34.78369141 14.70703125 C-21.89356628 12.63882916 -10.108991 8.52070221 0 0 Z " fill="#A76909" transform="translate(273,148)"/>
<path d="M0 0 C0.33 0 0.66 0 1 0 C1.174148 4.8378696 1.30057219 9.67388346 1.38452148 14.51416016 C1.41954214 16.15738738 1.46717701 17.80039934 1.52807617 19.44287109 C2.08478094 34.85283338 2.08478094 34.85283338 -2.28515625 39.875 C-3.49140036 40.95360328 -4.72666034 42.00149311 -6 43 C-6.71929687 43.763125 -7.43859375 44.52625 -8.1796875 45.3125 C-8.73914063 45.869375 -9.29859375 46.42625 -9.875 47 C-10.44992187 47.5775 -11.02484375 48.155 -11.6171875 48.75 C-13 50 -13 50 -14 50 C-14.02505615 49.40574219 -14.0501123 48.81148438 -14.07592773 48.19921875 C-14.19308888 45.46598993 -14.31526273 42.73300633 -14.4375 40 C-14.47681641 39.06542969 -14.51613281 38.13085938 -14.55664062 37.16796875 C-14.80407099 31.7245007 -15.27503022 26.3995749 -16 21 C-16.86928105 12.12091503 -16.86928105 12.12091503 -13.625 7.9375 C-10.1680733 5.38595886 -8.59537109 4.87720898 -4.375 4.9375 C-3.14910156 4.95103516 -3.14910156 4.95103516 -1.8984375 4.96484375 C-0.95871094 4.98224609 -0.95871094 4.98224609 0 5 C0 3.35 0 1.7 0 0 Z " fill="#C8C6C2" transform="translate(330,378)"/>
<path d="M0 0 C4.50885658 0.52603327 6.90217328 2.03736749 9.75 5.4375 C12.92220212 10.8302436 13.85774267 16.29266332 12.75 22.4375 C9.80555116 26.42116607 5.90357754 28.82943968 1.75 31.4375 C-3.24856222 27.69884936 -6.49215104 24.64167279 -8.25 18.4375 C-8.93492153 12.36967405 -8.66305421 7.68835263 -5.25 2.4375 C-3.25 0.4375 -3.25 0.4375 0 0 Z " fill="#060605" transform="translate(209.25,92.5625)"/>
<path d="M0 0 C6.28604567 3.63996895 11.14889341 9.76772413 13.75 16.5 C13.75 17.82 13.75 19.14 13.75 20.5 C9.7132901 18.56574317 5.98200097 16.20562256 2.1875 13.83984375 C-2.58620674 11.21583508 -7.27368426 11.31709735 -12.625 11.3125 C-13.3675 11.30025391 -14.11 11.28800781 -14.875 11.27539062 C-19.3648289 11.26349179 -23.08647332 11.61486498 -27.25 13.5 C-31.12260331 18.62858276 -31.96247708 23.16011959 -32.25 29.5 C-32.58 29.5 -32.91 29.5 -33.25 29.5 C-33.78121543 20.64640947 -33.42329792 14.53068339 -27.671875 7.59765625 C-19.98873843 -0.5873068 -11.1048853 -4.83008603 0 0 Z " fill="#A2A2A2" transform="translate(284.25,74.5)"/>
<path d="M0 0 C0.33 0 0.66 0 1 0 C1.02492888 5.08625949 1.04296724 10.17248252 1.05493164 15.25878906 C1.05992544 16.98503235 1.06672279 18.71127149 1.07543945 20.4375 C1.08772415 22.93490633 1.09327796 25.43225621 1.09765625 27.9296875 C1.10281754 28.68740448 1.10797882 29.44512146 1.11329651 30.22579956 C1.11369299 34.110333 0.93710982 37.89292767 0.5 41.75390625 C-0.15852911 47.83984852 -0.12506942 53.89213452 -0.09765625 60.0078125 C-0.0962413 61.2144455 -0.09482635 62.42107849 -0.09336853 63.66427612 C-0.08781082 67.48454359 -0.07526628 71.30475052 -0.0625 75.125 C-0.05747953 77.72916581 -0.05291758 80.33333256 -0.04882812 82.9375 C-0.03785527 89.29168701 -0.02115974 95.64583918 0 102 C-2.8731583 100.56342085 -3.04424122 99.01011334 -4.125 96 C-7.23040596 85.18901582 -6.39280209 74.13453742 -6 63 C-5.97359436 62.20682373 -5.94718872 61.41364746 -5.91998291 60.59643555 C-5.73851684 55.17343675 -5.53316785 49.75186419 -5.30426025 44.33065796 C-5.22765705 42.51454544 -5.15363535 40.69832181 -5.0824585 38.88198853 C-3.99567345 11.98702035 -3.99567345 11.98702035 0 0 Z " fill="#E1E1E0" transform="translate(219,275)"/>
<path d="M0 0 C0 3.46153142 -0.65446008 4.33574816 -2.5 7.1875 C-17.2701697 31.16730492 -27.24786033 55.42684965 -20.9296875 83.73828125 C-19.74703799 87.88749278 -18.15224828 91.26943631 -16 95 C-15.67 95.99 -15.34 96.98 -15 98 C-14.34 98 -13.68 98 -13 98 C-13 93.38 -13 88.76 -13 84 C-12.67 84 -12.34 84 -12 84 C-11.97421875 85.09699219 -11.9484375 86.19398438 -11.921875 87.32421875 C-11.8655731 88.77868448 -11.80822623 90.23311003 -11.75 91.6875 C-11.73582031 92.40873047 -11.72164062 93.12996094 -11.70703125 93.87304688 C-11.4822262 98.79627744 -10.59292747 101.35677155 -7 105 C-12.33497588 104.67666813 -15.53867912 101.80364931 -19 98 C-21.85822431 93.88211084 -24.41112503 89.76662491 -26 85 C-28.42383077 83.83046584 -28.42383077 83.83046584 -31 83 C-31.66 82.67 -32.32 82.34 -33 82 C-33 81.34 -33 80.68 -33 80 C-32.38125 79.7525 -31.7625 79.505 -31.125 79.25 C-28.55804153 77.74002443 -28.08334951 76.73782583 -27 74 C-26.79580495 71.83135198 -26.79580495 71.83135198 -26.9375 69.52734375 C-27.29701327 45.84682907 -18.10921667 18.81789356 -1.46875 1.44140625 C-0.9840625 0.96574219 -0.499375 0.49007812 0 0 Z " fill="#6A6A6A" transform="translate(153,253)"/>
<path d="M0 0 C0.33 0.66 0.66 1.32 1 2 C3.13774261 2.27434012 5.27784154 2.5368905 7.42431641 2.73144531 C11.56984891 3.16368093 15.61199144 4.01871833 19.6875 4.875 C20.50283203 5.03613281 21.31816406 5.19726562 22.15820312 5.36328125 C28.50844422 6.68774544 35.12045168 8.41345042 39 14 C39.19842675 17.57168142 38.90010331 19.83437949 36.67578125 22.71484375 C32.30322737 26.88354897 27.90516624 28.22335682 22 29 C22.3609375 28.55269531 22.721875 28.10539062 23.09375 27.64453125 C25.17821346 24.92893858 26.81346135 22.71223848 27.6875 19.375 C26.61573594 15.67254233 24.19228651 13.88931242 21 12 C14.06862301 9.05720486 7.17256829 7.92717736 -0.3125 7.4375 C-1.56675781 7.35371094 -2.82101562 7.26992188 -4.11328125 7.18359375 C-5.54220703 7.09271484 -5.54220703 7.09271484 -7 7 C-7 6.67 -7 6.34 -7 6 C-4.03 6 -1.06 6 2 6 C2 5.01 2 4.02 2 3 C1.34 3 0.68 3 0 3 C0 2.01 0 1.02 0 0 Z " fill="#424242" transform="translate(379,341)"/>
<path d="M0 0 C1.7135917 5.65691718 -0.39227971 8.90340001 -3.0546875 13.90625 C-5.99197335 18.57759618 -9.35944313 22.93723247 -14 26 C-17.21875 26.296875 -17.21875 26.296875 -20 26 C-21 25 -21 25 -21.08984375 23.03125 C-20.59175264 14.7552746 -17.69858876 9.58158596 -11.77734375 3.84765625 C-5.29344694 -1.61873421 -5.29344694 -1.61873421 0 0 Z " fill="#FED933" transform="translate(259,129)"/>
<path d="M0 0 C7.73219 2.36011613 14.95529935 11.42388227 19.6875 17.8203125 C20.0175 18.8103125 20.3475 19.8003125 20.6875 20.8203125 C18.66338796 19.80825648 16.6809065 18.81627132 14.75 17.6328125 C11.9600046 16.5337234 10.56011495 16.99777595 7.6875 17.8203125 C5.10412371 19.39433443 5.10412371 19.39433443 2.625 21.3203125 C-0.34814003 23.55589391 -2.6089106 25.20447315 -6.3125 25.8203125 C-6.08433594 25.17964844 -5.85617187 24.53898437 -5.62109375 23.87890625 C-3.80073024 18.4014896 -2.98461153 14.57449588 -4.3125 8.8203125 C-5.58772936 3.29431862 -5.58772936 3.29431862 -4.1875 0.8828125 C-2.3125 -0.1796875 -2.3125 -0.1796875 0 0 Z " fill="#787878" transform="translate(285.3125,22.1796875)"/>
<path d="M0 0 C4.52002639 -0.42657236 6.82194547 0.77363845 10.5625 3.25 C11.49191406 3.85328125 12.42132813 4.4565625 13.37890625 5.078125 C15.87679425 6.90966136 17.99621137 8.63822593 20 11 C20.36512105 14.40779647 20.24578333 17.06602336 19.375 20.375 C18 22 18 22 15.25 23.0625 C11.75280979 22.99524634 10.14087558 22.39027914 7.59375 19.9921875 C3.73189625 15.16487031 -1.36765883 8.46250846 -0.69140625 2.09375 C-0.46324219 1.4028125 -0.23507812 0.711875 0 0 Z " fill="#7E7E7F" transform="translate(316,153)"/>
<path d="M0 0 C0.61875 0.8353125 0.61875 0.8353125 1.25 1.6875 C1.8275 2.450625 2.405 3.21375 3 4 C3.66 4.886875 4.32 5.77375 5 6.6875 C7.71500559 9.82672521 9.47925411 9.95390118 13.57421875 10.31640625 C14.94506353 10.40249795 16.316177 10.48439477 17.6875 10.5625 C18.38939453 10.60568359 19.09128906 10.64886719 19.81445312 10.69335938 C21.54275206 10.7991736 23.2713511 10.90006581 25 11 C25 11.66 25 12.32 25 13 C24.21238281 13.268125 23.42476562 13.53625 22.61328125 13.8125 C12.26929569 17.53388652 -3.78999133 23.57998265 -9 34 C-9.66 33.67 -10.32 33.34 -11 33 C-10.36191406 32.18660156 -9.72382813 31.37320312 -9.06640625 30.53515625 C-2.91141217 22.18195 -0.93345135 15.78047498 -1 5.421875 C-1 2 -1 2 0 0 Z " fill="#D2D2D1" transform="translate(175,227)"/>
<path d="M0 0 C4.91455822 2.45727911 7.60305118 5.83930765 11 10 C9.80503906 9.93039063 8.61007813 9.86078125 7.37890625 9.7890625 C-4.32876374 9.17933335 -4.32876374 9.17933335 -14.46875 14.4921875 C-17.39786983 17.37647387 -18.27152417 18.50111527 -18.625 22.625 C-18.69976562 23.44226563 -18.77453125 24.25953125 -18.8515625 25.1015625 C-18.92503906 26.04128906 -18.92503906 26.04128906 -19 27 C-19.33 27 -19.66 27 -20 27 C-20.333864 17.94857601 -19.97434019 10.33990366 -14 3 C-9.79491281 -0.60436044 -5.30766657 -0.83607491 0 0 Z " fill="#B2B2B2" transform="translate(214,77)"/>
<path d="M0 0 C5.19758325 4.63676502 8.75302782 10.27219342 12.5625 16.0625 C13.26052734 17.11783936 13.95855469 18.17317871 14.67773438 19.26049805 C19.23979234 26.2040961 23.69270526 33.20800359 28 40.3125 C28.50990479 41.14724854 29.01980957 41.98199707 29.54516602 42.84204102 C30.00463623 43.61217529 30.46410645 44.38230957 30.9375 45.17578125 C31.33839844 45.84520752 31.73929688 46.51463379 32.15234375 47.2043457 C33 49 33 49 33 52 C28.71668122 50.49110361 26.8511616 47.34480944 24.5 43.6875 C24.07420654 43.03740967 23.64841309 42.38731934 23.2097168 41.7175293 C17.89998747 33.48251913 13.14442725 24.91866889 8.34814453 16.37890625 C6.00258111 12.23997652 3.5595352 8.15979787 1.109375 4.08203125 C0 2 0 2 0 0 Z " fill="#9F6600" transform="translate(139,365)"/>
<path d="M0 0 C0.25523437 1.485 0.25523437 1.485 0.515625 3 C1.82130231 10.23341567 3.28953326 16.56852431 7 23 C7.33 23.99 7.66 24.98 8 26 C8.66 26 9.32 26 10 26 C10 21.38 10 16.76 10 12 C10.33 12 10.66 12 11 12 C11.02578125 13.09699219 11.0515625 14.19398438 11.078125 15.32421875 C11.1344269 16.77868448 11.19177377 18.23311003 11.25 19.6875 C11.26417969 20.40873047 11.27835938 21.12996094 11.29296875 21.87304688 C11.5177738 26.79627744 12.40707253 29.35677155 16 33 C10.66502412 32.67666813 7.46132088 29.80364931 4 26 C1.14177569 21.88211084 -1.41112503 17.76662491 -3 13 C-5.42383077 11.83046584 -5.42383077 11.83046584 -8 11 C-8.66 10.67 -9.32 10.34 -10 10 C-10 9.34 -10 8.68 -10 8 C-9.38125 7.7525 -8.7625 7.505 -8.125 7.25 C-5.60421533 5.76718549 -5.2147002 4.59136042 -4 2 C-1 0 -1 0 0 0 Z " fill="#6B6B6B" transform="translate(130,325)"/>
<path d="M0 0 C5.22288468 1.4244231 8.75685546 4.7978611 12 9 C13 12.375 13 12.375 13 15 C10.94077598 17.05922402 6.78291876 16.41427579 3.9375 16.5625 C2.79958008 16.62727539 2.79958008 16.62727539 1.63867188 16.69335938 C-0.24065438 16.79973633 -2.12030244 16.90039934 -4 17 C-3.1953125 12.2265625 -3.1953125 12.2265625 -1.4375 10.1875 C0.76946363 6.82907708 0.19821978 3.96439569 0 0 Z " fill="#5A5A5A" transform="translate(360,263)"/>
<path d="M0 0 C0.99 0.495 0.99 0.495 2 1 C-11.23838923 13.63664426 -30.0210209 18.41731641 -47.99609375 18.21484375 C-53.81878208 17.7983966 -58.8316067 16.47248448 -63.0625 12.3125 C-63.701875 11.549375 -64.34125 10.78625 -65 10 C-64.34 10.268125 -63.68 10.53625 -63 10.8125 C-61.515 11.4003125 -61.515 11.4003125 -60 12 C-58.88625 12.53625 -57.7725 13.0725 -56.625 13.625 C-44.00189494 18.21736098 -26.94411105 14.5607101 -14.921875 9.31640625 C-9.48321673 6.74697775 -4.61276738 3.88802574 0 0 Z " fill="#7A5000" transform="translate(273,148)"/>
<path d="M0 0 C0.5667041 0.30695801 1.1334082 0.61391602 1.71728516 0.93017578 C9.17897573 4.42719483 17.55646021 4.26504141 25.625 4.125 C26.62917969 4.11597656 27.63335937 4.10695312 28.66796875 4.09765625 C31.11224126 4.07437746 33.55598408 4.04168487 36 4 C29.0378797 9.46932155 20.53429299 8.51359837 12 8 C8.22763927 7.26015274 4.62760236 6.2670212 1 5 C0.67 3.35 0.34 1.7 0 0 Z " fill="#C17A00" transform="translate(228,171)"/>
<path d="M0 0 C0.66 0 1.32 0 2 0 C2.87113402 23.01804124 2.87113402 23.01804124 -3.875 32.6875 C-6 34 -6 34 -9.25 33.75 C-10.1575 33.5025 -11.065 33.255 -12 33 C-11.2575 32.29875 -10.515 31.5975 -9.75 30.875 C-2.99206747 23.80988872 -0.78773695 17.13514714 -0.375 7.625 C-0.33632813 6.88894531 -0.29765625 6.15289062 -0.2578125 5.39453125 C-0.16442002 3.59672594 -0.0811629 1.79839892 0 0 Z " fill="#E9E9E7" transform="translate(297,95)"/>
<path d="M0 0 C0.33 0 0.66 0 1 0 C1.03738281 0.79921875 1.07476562 1.5984375 1.11328125 2.421875 C1.45278689 8.09361635 1.96883062 13.3474168 3.5625 18.8125 C6.18392649 28.59742856 6.77647516 39.47156011 1.875 48.59375 C1.58625 49.0578125 1.2975 49.521875 1 50 C-0.12744322 46.61767034 0.25416656 44.44309411 1 41 C1.27510164 34.89921659 1.14992288 28.82213664 0.5 22.75 C-0.29768454 15.18884931 -0.08010794 7.59245244 0 0 Z " fill="#E79900" transform="translate(55,395)"/>
<path d="M0 0 C0.33 0.66 0.66 1.32 1 2 C-5.01569509 7.84859245 -13.1910125 12.3125 -21.75 12.3125 C-22.8225 12.209375 -23.895 12.10625 -25 12 C-25.33 10.02 -25.66 8.04 -26 6 C-25.27296875 6.05800781 -24.5459375 6.11601562 -23.796875 6.17578125 C-14.61536127 6.58777225 -8.10093761 4.05046881 0 0 Z " fill="#BF7D00" transform="translate(400,388)"/>
<path d="M0 0 C0.66 0.66 1.32 1.32 2 2 C-1.30798644 4.84986601 -4.14547173 6.61418788 -8.25 8.0625 C-14.6562303 10.59648479 -20.11562351 14.11614103 -25.77246094 17.99047852 C-38.31082409 26.47520855 -38.31082409 26.47520855 -43.2644043 25.59985352 C-43.83715088 25.40190186 -44.40989746 25.2039502 -45 25 C-44.24976563 24.72027344 -43.49953125 24.44054687 -42.7265625 24.15234375 C-36.45303111 21.69507894 -31.11861551 18.95303106 -25.69921875 14.96484375 C-17.62436407 9.08691046 -9.31117955 3.6923643 0 0 Z " fill="#8B8477" transform="translate(295,156)"/>
<path d="M0 0 C1.109375 1.70703125 1.109375 1.70703125 2 4 C1.390625 6.26171875 1.390625 6.26171875 0.25 8.6875 C-4.28776739 19.24506655 -4.53457001 29.64595776 -5 41 C-5.99 41.495 -5.99 41.495 -7 42 C-7.9575449 26.39938393 -6.52041105 14.25508233 0 0 Z " fill="#606060" transform="translate(134,285)"/>
<path d="M0 0 C-5.42534126 4.59493189 -10.30499135 4.71411177 -17.25 4.875 C-18.23613281 4.92140625 -19.22226563 4.9678125 -20.23828125 5.015625 C-36.10976287 5.55931212 -36.10976287 5.55931212 -40.77832031 1.42529297 C-41.18147461 0.95494629 -41.58462891 0.48459961 -42 0 C-40.22950311 -0.05410687 -38.45853151 -0.09284119 -36.6875 -0.125 C-35.70136719 -0.14820313 -34.71523437 -0.17140625 -33.69921875 -0.1953125 C-31 0 -31 0 -28 2 C-25.38880918 2.22365038 -22.92217495 2.33125964 -20.3125 2.3125 C-19.59223633 2.31193604 -18.87197266 2.31137207 -18.12988281 2.31079102 C-11.99159117 2.20450326 -5.59147509 -1.83546248 0 0 Z " fill="#D38901" transform="translate(271,171)"/>
<path d="M0 0 C-1 3 -1 3 -3.5 4.6875 C-7.79751175 6.29906691 -11.46675253 6.93331566 -16 6 C-19.0625 3.5 -19.0625 3.5 -21 1 C-13.98441385 0.4011085 -7.04321257 -0.13810221 0 0 Z " fill="#E2AD00" transform="translate(242,165)"/>
<path d="M0 0 C3.67835547 0.58741798 5.35464184 1.74808137 8.0546875 4.328125 C9.99867792 7.89296231 11.58136084 11.54702119 13.0546875 15.328125 C10.4146875 14.668125 7.7746875 14.008125 5.0546875 13.328125 C5.7146875 12.998125 6.3746875 12.668125 7.0546875 12.328125 C7.0546875 11.008125 7.0546875 9.688125 7.0546875 8.328125 C6.0646875 7.998125 5.0746875 7.668125 4.0546875 7.328125 C3.7246875 6.668125 3.3946875 6.008125 3.0546875 5.328125 C0.24488077 4.63585468 0.24488077 4.63585468 -3.0078125 4.203125 C-4.66490234 3.95175781 -4.66490234 3.95175781 -6.35546875 3.6953125 C-7.21011719 3.57414062 -8.06476563 3.45296875 -8.9453125 3.328125 C-6.23212636 0.16134117 -4.21485424 -0.21614637 0 0 Z " fill="#383838" transform="translate(243.9453125,99.671875)"/>
<path d="M0 0 C6.40522513 0.16423654 10.5006105 3.80939214 15 8 C17.0625 10.9375 17.0625 10.9375 18 13 C17.01 13.66 16.02 14.32 15 15 C14.59910156 14.55269531 14.19820313 14.10539062 13.78515625 13.64453125 C9.34579639 8.92330728 4.80128351 5.85459982 -1 3 C-0.67 2.01 -0.34 1.02 0 0 Z " fill="#474747" transform="translate(282,64)"/>
<path d="M0 0 C4.02099376 3.28990399 4.8110906 7.43525992 5.4140625 12.4296875 C5.51847656 14.13511719 5.51847656 14.13511719 5.625 15.875 C5.69976562 17.02742188 5.77453125 18.17984375 5.8515625 19.3671875 C5.90054687 20.23601562 5.94953125 21.10484375 6 22 C0.03332346 16.18631517 0.03332346 16.18631517 -0.09765625 11.5234375 C-0.09100795 10.14059133 -0.07908295 8.75776272 -0.0625 7.375 C-0.05798828 6.66859375 -0.05347656 5.9621875 -0.04882812 5.234375 C-0.03703875 3.48954725 -0.01910324 1.744763 0 0 Z " fill="#BF6F00" transform="translate(428,369)"/>
<path d="M0 0 C0.66 0.33 1.32 0.66 2 1 C1.360625 1.5775 0.72125 2.155 0.0625 2.75 C-2.03525749 5.03846271 -2.52090218 6.02959352 -3 9 C-3.33 9.99 -3.66 10.98 -4 12 C-3.91343435 14.39870613 -3.76001509 16.79537281 -3.5625 19.1875 C-3.46066406 20.45980469 -3.35882813 21.73210937 -3.25390625 23.04296875 C-3.17011719 24.01878906 -3.08632812 24.99460937 -3 26 C-7.31491236 20.37185345 -7.87570245 16.08176767 -7 9 C-5.43943384 5.3198589 -3.65971993 1.82985996 0 0 Z " fill="#E5E5E4" transform="translate(259,86)"/>
<path d="M0 0 C3.84108078 0.26798238 5.736021 0.794683 8.8125 3.1875 C11.205317 6.263979 11.73201762 8.15891922 12 12 C8.60140297 10.53033642 6.35036291 8.61962486 3.75 6 C3.04359375 5.29875 2.3371875 4.5975 1.609375 3.875 C0 2 0 2 0 0 Z " fill="#686868" transform="translate(274,95)"/>
<path d="M0 0 C1.32 0.66 2.64 1.32 4 2 C4 3.98 4 5.96 4 8 C-2.625 11.125 -2.625 11.125 -6 10 C-5.195625 9.0925 -4.39125 8.185 -3.5625 7.25 C-1.58857329 4.89690092 -0.36122533 3.13061954 0 0 Z " fill="#636363" transform="translate(407,359)"/>
<path d="M0 0 C3.88014936 1.52059907 5.73906562 3.86078531 8.25 7.125 C8.95640625 8.03507813 9.6628125 8.94515625 10.390625 9.8828125 C11.18726563 10.93082031 11.18726563 10.93082031 12 12 C11.67 12.66 11.34 13.32 11 14 C10.37351563 13.28972656 9.74703125 12.57945312 9.1015625 11.84765625 C8.28429687 10.92855469 7.46703125 10.00945312 6.625 9.0625 C5.81289062 8.14597656 5.00078125 7.22945312 4.1640625 6.28515625 C2.21290653 3.96398605 2.21290653 3.96398605 0 3 C0 7.29 0 11.58 0 16 C-0.33 16 -0.66 16 -1 16 C-1.02692484 13.70839681 -1.04636124 11.41670454 -1.0625 9.125 C-1.07410156 7.84882813 -1.08570313 6.57265625 -1.09765625 5.2578125 C-1 2 -1 2 0 0 Z " fill="#7D786F" transform="translate(202,158)"/>
<path d="M0 0 C0.66 0.33 1.32 0.66 2 1 C1.57847656 1.47050781 1.15695312 1.94101563 0.72265625 2.42578125 C0.17480469 3.04839844 -0.37304688 3.67101562 -0.9375 4.3125 C-1.48277344 4.92738281 -2.02804687 5.54226562 -2.58984375 6.17578125 C-4.20081559 8.05241958 -4.20081559 8.05241958 -5 11 C-5.66 11 -6.32 11 -7 11 C-7 14.96 -7 18.92 -7 23 C-7.33 23 -7.66 23 -8 23 C-8.22304441 21.25181409 -8.4278645 19.50129677 -8.625 17.75 C-8.74101562 16.77546875 -8.85703125 15.8009375 -8.9765625 14.796875 C-9.00145878 11.82591869 -8.51974567 10.49790924 -7 8 C-6.731875 7.34 -6.46375 6.68 -6.1875 6 C-4.59894355 3.3245365 -2.48349364 1.82994269 0 0 Z " fill="#F2F2F0" transform="translate(263,85)"/>
<path d="M0 0 C0.33 0 0.66 0 1 0 C0.54177532 3.46941546 0.10868317 6.67395049 -1 10 C-1.02996337 13.3601778 -0.9334572 16.70755554 -0.83984375 20.06640625 C-1 23 -1 23 -3 25 C-3.0875127 21.77100574 -3.14056146 18.54231884 -3.1875 15.3125 C-3.21263672 14.40048828 -3.23777344 13.48847656 -3.26367188 12.54882812 C-3.31798713 7.56992966 -3.34955169 4.00765 0 0 Z " fill="#F3AD00" transform="translate(356,370)"/>
<path d="M0 0 C0.66 0.33 1.32 0.66 2 1 C2.1875 4.3125 2.1875 4.3125 2 8 C1.5153125 8.474375 1.030625 8.94875 0.53125 9.4375 C-1.47973595 11.48952648 -1.48270157 12.86128173 -1.6875 15.6875 C-1.75324219 16.49574219 -1.81898438 17.30398437 -1.88671875 18.13671875 C-1.92410156 18.75160156 -1.96148437 19.36648437 -2 20 C-2.33 20 -2.66 20 -3 20 C-3.25807077 13.00341472 -3.20398992 6.40797985 0 0 Z " fill="#828281" transform="translate(197,84)"/>
<path d="M0 0 C0.33 0.66 0.66 1.32 1 2 C3.02463255 2.65213292 3.02463255 2.65213292 5 3 C5 3.99 5 4.98 5 6 C0.38 6.66 -4.24 7.32 -9 8 C-4.5 3.5 -4.5 3.5 0 3 C0 2.01 0 1.02 0 0 Z " fill="#6D6D6D" transform="translate(376,341)"/>
<path d="M0 0 C0.33 0 0.66 0 1 0 C0.65261383 10.89055649 0.65261383 10.89055649 -1.875 15.1875 C-4 17 -4 17 -7 18 C-6.505 16.515 -6.505 16.515 -6 15 C-5.34 15 -4.68 15 -4 15 C-4.061875 14.113125 -4.12375 13.22625 -4.1875 12.3125 C-3.97707186 8.59493626 -3.01296289 7.05970359 -1 4 C-0.30420546 1.80869466 -0.30420546 1.80869466 0 0 Z " fill="#C78101" transform="translate(298,141)"/>
<path d="M0 0 C4.64686209 1.34258141 8.2459218 3.23625629 12.25 5.9375 C13.28640625 6.62714844 14.3228125 7.31679687 15.390625 8.02734375 C18 10 18 10 20 13 C16.30554091 13 15.60203878 12.12806405 12.8125 9.8125 C9.16654896 6.86585432 5.47050321 4.3218167 1.43359375 1.9453125 C0.96050781 1.63335937 0.48742187 1.32140625 0 1 C0 0.67 0 0.34 0 0 Z " fill="#6C6C6D" transform="translate(351,244)"/>
<path d="M0 0 C0.33 0.99 0.66 1.98 1 3 C-5.74924058 9.93165249 -5.74924058 9.93165249 -10.57421875 10.1953125 C-11.9454488 10.1820639 -13.31660985 10.15828025 -14.6875 10.125 C-15.7403418 10.11146484 -15.7403418 10.11146484 -16.81445312 10.09765625 C-18.54311525 10.07413704 -20.27160145 10.03826713 -22 10 C-22 9.67 -22 9.34 -22 9 C-21.20335938 8.96261719 -20.40671875 8.92523438 -19.5859375 8.88671875 C-9.48318574 8.27098972 -9.48318574 8.27098972 -1.625 2.3125 C-1.08875 1.549375 -0.5525 0.78625 0 0 Z " fill="#E69800" transform="translate(101,376)"/>
<path d="M0 0 C4.75 0.75 4.75 0.75 7 3 C7 4.32 7 5.64 7 7 C3.76509224 6.44225728 2.02144994 5.62788492 0 3 C0 2.01 0 1.02 0 0 Z " fill="#6C6C6B" transform="translate(210,97)"/>
<path d="M0 0 C3.375 0.3125 3.375 0.3125 7 1 C7.66 1.99 8.32 2.98 9 4 C5.61608307 5.06351675 4.4195366 5.21442982 1.1875 3.5625 C0.465625 3.046875 -0.25625 2.53125 -1 2 C-0.67 1.34 -0.34 0.68 0 0 Z " fill="#A17804" transform="translate(246,117)"/>
<path d="M0 0 C1.58294782 -0.05437607 3.16644256 -0.09296271 4.75 -0.125 C5.63171875 -0.14820312 6.5134375 -0.17140625 7.421875 -0.1953125 C10.92882113 0.07036524 13.05074091 1.27987242 15.8125 3.375 C17 5 17 5 16.6875 7.1875 C16.460625 7.785625 16.23375 8.38375 16 9 C15.443125 8.21625 14.88625 7.4325 14.3125 6.625 C10.26711763 2.03294433 5.91387621 1.69575014 0 1 C0 0.67 0 0.34 0 0 Z " fill="#141414" transform="translate(234,103)"/>
<path d="M0 0 C-0.33 0.99 -0.66 1.98 -1 3 C-3.76264289 3.59732819 -6.16032769 4 -9 4 C-8.625 2.0625 -8.625 2.0625 -8 0 C-5.13822943 -1.43088528 -3.06624227 -0.59991697 0 0 Z " fill="#F1AE00" transform="translate(298,138)"/>
<path d="M0 0 C0.93555364 2.53935988 1.09388208 3.72209035 0.21484375 6.32421875 C-3.26616615 12.76461933 -3.26616615 12.76461933 -7.3125 14.0625 C-8.6428125 14.0315625 -8.6428125 14.0315625 -10 14 C-7.66666667 11.66666667 -5.33333333 9.33333333 -3 7 C-1.96157435 4.68351201 -0.9578025 2.35096976 0 0 Z " fill="#DCDAD2" transform="translate(297,115)"/>
<path d="M0 0 C0.33 0 0.66 0 1 0 C2.59162079 5.57067277 3.20674944 10.21101581 3 16 C-0.13107836 12.61416198 -0.33550778 10.28890538 -0.1875 5.75 C-0.14689453 4.13351562 -0.14689453 4.13351562 -0.10546875 2.484375 C-0.07066406 1.66453125 -0.03585937 0.8446875 0 0 Z " fill="#D98700" transform="translate(428,372)"/>
<path d="M0 0 C0.33 0 0.66 0 1 0 C1 2.64 1 5.28 1 8 C-0.32 8 -1.64 8 -3 8 C-3 6.02 -3 4.04 -3 2 C-2.01 2 -1.02 2 0 2 C0 1.34 0 0.68 0 0 Z " fill="#333332" transform="translate(217,102)"/>
<path d="M0 0 C0.33 0.66 0.66 1.32 1 2 C0.54625 2.680625 0.0925 3.36125 -0.375 4.0625 C-2.53811325 7.97274319 -2.7218258 11.59717384 -3 16 C-3.33 16 -3.66 16 -4 16 C-4.02703381 14.06257659 -4.04641125 12.12504521 -4.0625 10.1875 C-4.07410156 9.10855469 -4.08570313 8.02960938 -4.09765625 6.91796875 C-4 4 -4 4 -3 1 C-2.01 0.67 -1.02 0.34 0 0 Z " fill="#BBBBBB" transform="translate(255,88)"/>
<path d="M0 0 C4.39750672 0.50740462 6.86948922 3.08293314 10 6 C10 6.66 10 7.32 10 8 C6.05205855 6.32971708 3.18203882 3.8204435 0 1 C0 0.67 0 0.34 0 0 Z " fill="#454545" transform="translate(216,68)"/>
<path d="M0 0 C-1 3 -1 3 -3.9375 4.75 C-5.4534375 5.36875 -5.4534375 5.36875 -7 6 C-7.66 5.67 -8.32 5.34 -9 5 C-3.375 0 -3.375 0 0 0 Z " fill="#805500" transform="translate(289,138)"/>
<path d="M0 0 C0.66 0.66 1.32 1.32 2 2 C1.01 3.485 1.01 3.485 0 5 C-1.65 4.67 -3.3 4.34 -5 4 C-5 3.34 -5 2.68 -5 2 C-3.35 1.34 -1.7 0.68 0 0 Z " fill="#0F0F0E" transform="translate(279,102)"/>
<path d="M0 0 C2.97 0.495 2.97 0.495 6 1 C5.01 2.32 4.02 3.64 3 5 C1.68 4.34 0.36 3.68 -1 3 C-0.67 2.01 -0.34 1.02 0 0 Z " fill="#202020" transform="translate(282,64)"/>
<path d="M0 0 C1.32 0 2.64 0 4 0 C4.66 1.65 5.32 3.3 6 5 C3.36 4.34 0.72 3.68 -2 3 C-1.34 2.67 -0.68 2.34 0 2 C0 1.34 0 0.68 0 0 Z " fill="#464333" transform="translate(251,110)"/>
<path d="M0 0 C0.66 0.33 1.32 0.66 2 1 C0.02 3.31 -1.96 5.62 -4 8 C-4.33 7.34 -4.66 6.68 -5 6 C-2.59016393 1.29508197 -2.59016393 1.29508197 0 0 Z M-6 8 C-6 11 -6 11 -6 11 Z " fill="#DFDFDE" transform="translate(259,86)"/>
<path d="M0 0 C1.32 1.65 2.64 3.3 4 5 C3.01 5.66 2.02 6.32 1 7 C0.01 5.68 -0.98 4.36 -2 3 C-1.34 2.01 -0.68 1.02 0 0 Z " fill="#282828" transform="translate(296,72)"/>
<path d="M0 0 C0.66 0.33 1.32 0.66 2 1 C-1.96 4.465 -1.96 4.465 -6 8 C-6 5 -6 5 -4.6875 3.61328125 C-3.125 2.40885417 -1.5625 1.20442708 0 0 Z " fill="#ECECEB" transform="translate(263,85)"/>
<path d="M0 0 C4.875 4.625 4.875 4.625 6 8 C5.01 8 4.02 8 3 8 C0 2.25 0 2.25 0 0 Z " fill="#B37400" transform="translate(139,365)"/>
</svg>
